# xmcd
#
# Track frame offsets:
#	150
#	14077
#	34670
#	51810
#	66142
#	78712
#	93290
#	108617
#	121520
#	140312
#	153307
#	170132
#	188030
#	205125
#
# Disc length: 2944 seconds
#
# Revision: 0
# Processed by: cddbd v1.4PL0 Copyright (c) Steve Scherf et al.
# Submitted via: audiograbber 1.81.02
#
DISCID=bb0b7e0e
DTITLE=David Evans - Matchbox Blues
DYEAR=2002
DGENRE=Blues
TTITLE0=One Dime Blues
TTITLE1=Aunt Caroline Dye Blues
TTITLE2=Shake 'Em On Down
TTITLE3=Matchbox Blues
TTITLE4=Candy Man
TTITLE5=Mellow Peaches (Peachtree Blues)
TTITLE6=Railroad Blues
TTITLE7=State Of Arkansas Blues
TTITLE8=Prison Bound Blues
TTITLE9=Skinny Woman (Gravel Road Woman)
TTITLE10=Keep On Grumbling
TTITLE11=See See Rider
TTITLE12=Big Road Blues
TTITLE13=One Kind Favor
EXTD=© 2002\nInside Sounds/Inside Memphis 514
EXTT0=
EXTT1=
EXTT2=
EXTT3=
EXTT4=
EXTT5=
EXTT6=
EXTT7=
EXTT8=
EXTT9=
EXTT10=
EXTT11=
EXTT12=
EXTT13=
PLAYORDER=
